<svg xmlns="http://www.w3.org/2000/svg" viewBox="0 0 30 35.65"><defs><style>.cls-1{fill:#fff;}</style></defs><title>github</title><g id="Layer_2" data-name="Layer 2"><g id="Layer_1-2" data-name="Layer 1"><path class="cls-1" d="M.1,22.19a.26.26,0,0,1,0-.41,1.13,1.13,0,0,1,1-.31,1.78,1.78,0,0,1,.72.21,4.53,4.53,0,0,1,1.59,1.39,11.41,11.41,0,0,0,1.39,1.49,3.82,3.82,0,0,0,5,.3,3.06,3.06,0,0,1,.67-1.23,3.29,3.29,0,0,1,.87-.72c.28-.14.76-.34,1.44-.62a18.62,18.62,0,0,1-5.49-1.18A9.23,9.23,0,0,1,4,18.9a8.58,8.58,0,0,1-2-4.82,12.34,12.34,0,0,1,.47-5.45A9,9,0,0,1,4.21,5.86,9.21,9.21,0,0,1,4.52,0a10.7,10.7,0,0,1,6,2.26,22.52,22.52,0,0,1,10.68-.1A21,21,0,0,1,23.37.87,9.17,9.17,0,0,1,27.12,0a10.6,10.6,0,0,1,.57,2.67,8.79,8.79,0,0,1-.16,2.88A9.43,9.43,0,0,1,30,12.12a11.71,11.71,0,0,1-1.13,5.45,8.6,8.6,0,0,1-4,3.59,14,14,0,0,1-5.13,1.13,6.88,6.88,0,0,1,2.1,1.49,4.54,4.54,0,0,1,.88,2.42v3.24l.1,3.13a3.41,3.41,0,0,0,.72.87,3.71,3.71,0,0,0,.72.52.34.34,0,0,1,.2.46c-.07.2-.34.31-.82.31a3.4,3.4,0,0,1-2.77-1.24,2.29,2.29,0,0,1-.31-1.23V27.33a1.5,1.5,0,0,0-.41-1.18,2,2,0,0,0-.82-.46v6.47a4,4,0,0,0,.41,2.26,2.43,2.43,0,0,1,.51,1c.07.06,0,.12-.15.15a2.15,2.15,0,0,1-.88-.15,2.57,2.57,0,0,1-1.85-1.39,5.34,5.34,0,0,1-.51-2.31V25.38H15.51v6.37A5.66,5.66,0,0,1,15,34.11a2.89,2.89,0,0,1-2.67,1.54c-.21-.07-.31-.14-.31-.2a10.7,10.7,0,0,0,.62-1,4.64,4.64,0,0,0,.25-.82,5.61,5.61,0,0,0,.16-1.44V25.69a1.56,1.56,0,0,0-.77.46,1.62,1.62,0,0,0-.36,1.18v4.93a2.29,2.29,0,0,1-.31,1.23,3.23,3.23,0,0,1-2.77,1.24c-.48,0-.76-.11-.83-.31a.29.29,0,0,1,.06-.36,3.08,3.08,0,0,1,.46-.36,3.73,3.73,0,0,0,.41-.31,1.81,1.81,0,0,0,.61-.82,3.88,3.88,0,0,0,.16-2.16,10.41,10.41,0,0,1-.05-2.26,5.94,5.94,0,0,1-5.45-.92,10.08,10.08,0,0,1-1.64-2.37A10.34,10.34,0,0,0,.1,22.19Z"/></g></g></svg>