<svg xmlns="http://www.w3.org/2000/svg" viewBox="0 0 32 30.58"><defs><style>.cls-1{fill:#fff;}</style></defs><title>linkedin</title><g id="Layer_2" data-name="Layer 2"><g id="Layer_1-2" data-name="Layer 1"><path class="cls-1" d="M3.83,7.13h0A3.57,3.57,0,1,1,3.88,0,3.54,3.54,0,0,1,7.71,3.56,3.57,3.57,0,0,1,3.83,7.13ZM7.27,30.58H.4V9.94H7.27Zm24.73,0H25.15v-11c0-2.77-1-4.67-3.48-4.67a3.76,3.76,0,0,0-3.52,2.51,5,5,0,0,0-.23,1.68V30.58H11.06c.09-18.71,0-20.64,0-20.64h6.86v3h0A6.78,6.78,0,0,1,24.1,9.46c4.52,0,7.9,3,7.9,9.29Z"/></g></g></svg>